<svg xmlns="http://www.w3.org/2000/svg" xmlns:xlink="http://www.w3.org/1999/xlink" width="47.846" height="47.846" viewBox="0 0 47.846 47.846"><defs><filter id="a" x="0" y="0" width="47.846" height="47.846" filterUnits="userSpaceOnUse"><feOffset dy="2" input="SourceAlpha"/><feGaussianBlur stdDeviation="1.5" result="b"/><feFlood flood-opacity="0.149"/><feComposite operator="in" in2="b"/><feComposite in="SourceGraphic"/></filter></defs><g transform="translate(-1712.278 -958.5)"><g transform="matrix(1, 0, 0, 1, 1712.28, 958.5)" filter="url(#a)"><circle cx="19.423" cy="19.423" r="19.423" transform="translate(4.5 2.5)" fill="#fff"/></g><g transform="translate(1723.511 967.262)"><path d="M451.778,118.063a12.611,12.611,0,0,0-25.2-.233c-.008.183-.014.366-.014.552a12.38,12.38,0,0,0,1.809,6.459l-2.276,6.714,6.981-2.219a12.63,12.63,0,0,0,18.7-10.955C451.786,118.275,451.781,118.17,451.778,118.063Zm-12.6,10.836a10.588,10.588,0,0,1-5.833-1.74l-4.074,1.295,1.325-3.906a10.412,10.412,0,0,1-2.019-6.167c0-.344.018-.684.051-1.02a10.607,10.607,0,0,1,21.116.2c.021.271.035.545.035.822A10.573,10.573,0,0,1,439.176,128.9Z" transform="translate(-426.1 -105.869)" fill="#1d5849"/><path d="M472.182,147.645c-.309-.154-1.83-.9-2.113-1s-.489-.154-.7.153-.8,1-.979,1.2-.36.231-.669.078a8.441,8.441,0,0,1-2.485-1.522,9.2,9.2,0,0,1-1.719-2.124c-.181-.306-.019-.472.135-.625.14-.137.309-.359.464-.537a1.372,1.372,0,0,0,.112-.147,3.277,3.277,0,0,0,.2-.364.562.562,0,0,0-.026-.538c-.077-.153-.7-1.663-.953-2.277s-.515-.511-.7-.511-.386-.025-.592-.025a1.139,1.139,0,0,0-.825.384,3.426,3.426,0,0,0-1.082,2.557,3.806,3.806,0,0,0,.16,1.044,6.93,6.93,0,0,0,1.1,2.128,12.639,12.639,0,0,0,5.279,4.63c3.143,1.228,3.143.819,3.711.767a3.122,3.122,0,0,0,2.086-1.459,2.557,2.557,0,0,0,.18-1.459C472.7,147.875,472.491,147.8,472.182,147.645Z" transform="translate(-453.331 -132.609)" fill="#1d5849"/></g></g></svg>