<?xml version="1.0" encoding="utf-8"?><svg xmlns="http://www.w3.org/2000/svg" viewBox="0 0 183.1 53.3"><path d="M172.6 38.3L177 28h6.2l-7.6 15.2v8.5h-5.8v-8.5L162 28h6.1l4.5 10.3zm-98.9 5h-3.1v8.4h-5.7V28h9.3c2.8 0 5 .6 6.6 1.9 1.6 1.2 2.4 3 2.4 5.3 0 1.6-.3 3-1 4.1-.7 1.1-1.7 2-3.1 2.6l4.9 9.5v.2h-6.1l-4.2-8.3zm-3.1-4.4h3.6c1.1 0 1.9-.3 2.4-.9.5-.6.8-1.4.8-2.4s-.3-1.8-.8-2.4c-.5-.6-1.4-.9-2.4-.9h-3.6v6.6zm30.7 2.7h-9v5.7h10.6v4.4H86.6V28h16.3v4.4H92.3v5h9v4.2zm17.4 5.6h-7.8l-1.4 4.4h-6.1l8.7-23.7h5.4l8.8 23.7h-6.1l-1.5-4.4zm-6.5-4.4h5.1l-2.6-8.2-2.5 8.2zm21.4 4.5h9.9v4.4h-15.6V28h5.7v19.3zm27.6-14.9h-7.1v19.3h-5.7V32.4h-7V28h19.8v4.4z" fill="#575859"/><path d="M116.7 14.3a13 13 0 01-1.3 6.1 9.3 9.3 0 01-3.7 4.1 10 10 0 01-5.4 1.4c-2 0-3.8-.5-5.4-1.4a9.6 9.6 0 01-3.7-4c-.9-1.7-1.3-3.7-1.4-5.9v-1.3c0-2.3.4-4.4 1.3-6.1a9.2 9.2 0 013.7-4.1 10 10 0 015.4-1.4c2 0 3.8.5 5.4 1.4 1.6 1 2.8 2.3 3.7 4.1.9 1.8 1.3 3.8 1.3 6.1v1h.1zm-43 3h-3.1v8.4h-5.7V2h9.3c2.8 0 5 .6 6.6 1.9 1.6 1.2 2.4 3 2.4 5.3 0 1.6-.3 3-1 4.1-.7 1.1-1.7 2-3.1 2.6l4.9 9.5v.2h-6.1l-4.2-8.3zm-3.1-4.4h3.6c1.1 0 1.9-.3 2.4-.9.5-.6.8-1.4.8-2.4s-.3-1.8-.8-2.4c-.5-.6-1.4-.9-2.4-.9h-3.6v6.6zm22.1 12.8H87V2h5.7v23.7zm18.2-12.4a10 10 0 00-1.2-5.4 3.8 3.8 0 00-3.4-1.8c-2.9 0-4.4 2.1-4.5 6.5v1.7c0 2.3.4 4.1 1.2 5.4a3.9 3.9 0 003.4 1.9c1.4 0 2.6-.6 3.3-1.8.8-1.2 1.2-3 1.2-5.3v-1.2z" fill="#dc610e"/><path d="M8.9 0h35.5a9 9 0 018.9 8.9v35.5a9 9 0 01-8.9 8.9H8.9A9 9 0 010 44.4V8.9A9 9 0 018.9 0z" fill-rule="evenodd" clip-rule="evenodd" fill="#dc610e"/><path d="M50.4 23.8H37.6l2.6-7H26.7l-.8 2.2-7.4 19.8h26.3l5.6-15zm-15.3-4.6h2.6l.3-.8h-2.6l-.3.8zm-1.3.7h-2.6l-.3.8h2.6l.3-.8zm-.6 1.5h-2.6l-.3.8h2.6l.3-.8zm3 1.6h-2.6l-.3.8h2.6l.3-.8zm4.7 1.7h-2.6l-.3.8h2.6l.3-.8zm2.6 2.5h-2.6l-.4.8h2.6l.4-.8zm2.5 4.5h-2.6l-.4.8h2.6l.4-.8zm0-5.7h2.6l.3-.8h-2.6l-.3.8z" fill-rule="evenodd" clip-rule="evenodd" fill="#9a4309"/><path d="M44.7 38.9c-2-7.1-6.1-12-10.9-12a8 8 0 00-4.6 1.6c-1.7-8.9-5.6-14.1-10.8-14.1-6.5 0-12.2 10.7-13 24.5h39.3z" fill-rule="evenodd" clip-rule="evenodd" fill="#fff"/></svg>